HIERARCHY
ROOT Hips
{
	OFFSET 0.00000 0.00000 0.00000
	CHANNELS 6 Xposition Yposition Zposition Zrotation Yrotation Xrotation 
	JOINT LHipJoint
	{
		OFFSET 0 0 0
		CHANNELS 3 Zrotation Yrotation Xrotation
		JOINT LeftUpLeg
		{
			OFFSET 1.53794 -1.55850 0.93568
			CHANNELS 3 Zrotation Yrotation Xrotation
			JOINT LeftLeg
			{
				OFFSET 2.28545 -6.27922 0.00000
				CHANNELS 3 Zrotation Yrotation Xrotation
				JOINT LeftFoot
				{
					OFFSET 2.37329 -6.52057 0.00000
					CHANNELS 3 Zrotation Yrotation Xrotation
					JOINT LeftToeBase
					{
						OFFSET 0.14846 -0.40788 2.09160
						CHANNELS 3 Zrotation Yrotation Xrotation
						End Site
						{
							OFFSET 0.00000 -0.00000 1.07536
						}
					}
				}
			}
		}
	}
	JOINT RHipJoint
	{
		OFFSET 0 0 0
		CHANNELS 3 Zrotation Yrotation Xrotation
		JOINT RightUpLeg
		{
			OFFSET -1.78290 -1.55850 0.93568
			CHANNELS 3 Zrotation Yrotation Xrotation
			JOINT RightLeg
			{
				OFFSET -2.24144 -6.15831 0.00000
				CHANNELS 3 Zrotation Yrotation Xrotation
				JOINT RightFoot
				{
					OFFSET -2.35091 -6.45907 0.00000
					CHANNELS 3 Zrotation Yrotation Xrotation
					JOINT RightToeBase
					{
						OFFSET -0.14428 -0.39641 2.07944
						CHANNELS 3 Zrotation Yrotation Xrotation
						End Site
						{
							OFFSET -0.00000 -0.00000 1.06864
						}
					}
				}
			}
		}
	}
	JOINT LowerBack
	{
		OFFSET 0 0 0
		CHANNELS 3 Zrotation Yrotation Xrotation
		JOINT Spine
		{
			OFFSET -0.08841 2.11430 -0.15818
			CHANNELS 3 Zrotation Yrotation Xrotation
			JOINT Spine1
			{
				OFFSET -0.00033 2.12605 -0.08097
				CHANNELS 3 Zrotation Yrotation Xrotation
				JOINT Neck
				{
					OFFSET 0 0 0
					CHANNELS 3 Zrotation Yrotation Xrotation
					JOINT Neck1
					{
						OFFSET 0.04431 1.59447 0.43193
						CHANNELS 3 Zrotation Yrotation Xrotation
						JOINT Head
						{
							OFFSET 0.00455 1.62017 -0.58852
							CHANNELS 3 Zrotation Yrotation Xrotation
							End Site
							{
								OFFSET -0.00920 1.72955 -0.25850
							}
						}
					}
				}
				JOINT LeftShoulder
				{
					OFFSET 0 0 0
					CHANNELS 3 Zrotation Yrotation Xrotation
					JOINT LeftArm
					{
						OFFSET 2.86490 1.49927 -0.33774
						CHANNELS 3 Zrotation Yrotation Xrotation
						JOINT LeftForeArm
						{
							OFFSET 4.87408 -0.00000 0.00000
							CHANNELS 3 Zrotation Yrotation Xrotation
							JOINT LeftHand
							{
								OFFSET 2.76729 -0.00000 0.00000
								CHANNELS 3 Zrotation Yrotation Xrotation
								JOINT LeftFingerBase
								{
									OFFSET 0 0 0
									CHANNELS 3 Zrotation Yrotation Xrotation
									JOINT LeftHandIndex1
									{
										OFFSET 0.98922 -0.00000 0.00000
										CHANNELS 3 Zrotation Yrotation Xrotation
										End Site
										{
											OFFSET 0.79753 -0.00000 0.00000
										}
									}
								}
								JOINT LThumb
								{
									OFFSET 0 0 0
									CHANNELS 3 Zrotation Yrotation Xrotation
									End Site
									{
										OFFSET 0.80972 -0.00000 0.80972
									}
								}
							}
						}
					}
				}
				JOINT RightShoulder
				{
					OFFSET 0 0 0
					CHANNELS 3 Zrotation Yrotation Xrotation
					JOINT RightArm
					{
						OFFSET -2.94414 1.45463 -0.25291
						CHANNELS 3 Zrotation Yrotation Xrotation
						JOINT RightForeArm
						{
							OFFSET -4.71404 -0.00000 0.00000
							CHANNELS 3 Zrotation Yrotation Xrotation
							JOINT RightHand
							{
								OFFSET -2.83468 -0.00000 0.00000
								CHANNELS 3 Zrotation Yrotation Xrotation
								JOINT RightFingerBase
								{
									OFFSET 0 0 0
									CHANNELS 3 Zrotation Yrotation Xrotation
									JOINT RightHandIndex1
									{
										OFFSET -0.86820 -0.00000 0.00000
										CHANNELS 3 Zrotation Yrotation Xrotation
										End Site
										{
											OFFSET -0.69996 -0.00000 0.00000
										}
									}
								}
								JOINT RThumb
								{
									OFFSET 0 0 0
									CHANNELS 3 Zrotation Yrotation Xrotation
									End Site
									{
										OFFSET -0.71065 -0.00000 0.71065
									}
								}
							}
						}
					}
				}
			}
		}
	}
}
MOTION
Frames: 6
Frame Time: 0.0512821
0.00 0.00 0.00 179.5350 18.8113 -167.2650 0.0000 0.0000 0.0000 13.6337 -17.1182 -63.3014 10.0892 17.4597 59.7860 1.6532 11.4072 23.2204 0.0925 1.9612 5.3984 0.0000 0.0000 0.0000 5.0725 -3.3944 13.6602 -5.6964 -14.1276 43.7510 -1.8873 -20.7156 26.7824 -0.0454 1.3749 -3.7809 -2.6527 9.8575 0.1098 -5.6176 13.5503 1.1398 -4.0582 6.9105 1.8928 -1.4693 0.9162 -29.2604 4.2123 -6.0218 45.7558 0.3258 -3.1841 27.6763 -0.0000 0.0000 0.0000 -34.4301 35.1726 60.8045 61.7052 -56.7475 -35.7636 -0.0000 -0.0000 11.8519 8.0052 4.9863 0.7003 -7.1250 0.0000 -0.0000 -15.3517 34.6745 4.0125 -0.0000 0.0000 0.0000 61.7594 17.2319 46.8312 -92.3608 59.9789 -62.0444 0.0000 0.0000 5.2669 -2.1063 -0.1896 0.0070 7.1250 -0.0000 -0.0000 19.0271 -29.8490 7.4060
0.00 0.00 0.00 181.2360 20.4050 -167.9730 0.0000 0.0000 0.0000 10.3883 -17.5171 -51.4583 4.7303 13.0735 39.6441 2.6050 13.0436 29.1885 0.1042 2.0810 5.7296 0.0000 0.0000 0.0000 2.0153 -2.5749 13.3592 -9.6046 -17.1814 58.1585 -1.3969 -15.6481 22.3295 -0.0592 1.5694 -4.3169 -1.5627 10.5438 -2.0314 -4.2151 14.3805 1.2251 -2.7408 7.2492 3.0980 -1.5900 1.2668 -27.9492 4.0071 -6.0795 46.6652 0.1341 -3.4509 28.2163 0.0000 0.0000 0.0000 -35.0659 38.5545 64.0314 66.1654 -57.7407 -39.5152 -0.0000 -0.0000 13.2353 8.1628 3.3704 0.4832 -7.1250 0.0000 -0.0000 -14.9262 33.1067 4.4815 0.0000 0.0000 0.0000 64.6746 12.9875 47.2196 -86.7053 59.9589 -57.1471 0.0000 0.0000 7.5910 -1.3944 0.7539 -0.0183 7.1250 -0.0000 -0.0000 19.3847 -28.9379 8.0095
0.00 0.00 0.00 183.7460 22.3617 -168.2210 0.0000 0.0000 0.0000 8.8209 -18.3555 -38.5740 1.4313 7.5646 21.3991 3.8163 20.5903 36.2213 0.1777 2.7157 7.4882 0.0000 0.0000 0.0000 -0.9109 -0.7393 12.9628 -13.7714 -19.0432 71.5052 -0.7945 -12.0870 16.8616 -0.1418 2.4272 -6.6877 0.5543 10.9809 -4.3418 -2.6330 14.7573 1.0624 -1.7374 7.3929 4.3179 -1.0594 2.0290 -26.8855 3.3585 -5.6314 47.6401 -0.3479 -3.4861 28.8858 -0.0000 0.0000 0.0000 -36.3312 43.3534 65.4724 72.2678 -58.7779 -44.7064 -0.0000 -0.0000 14.4394 8.4925 1.8404 0.2748 -7.1250 0.0000 -0.0000 -14.4105 31.6225 4.8505 -0.0000 0.0000 0.0000 67.7534 7.2610 46.2153 -81.9294 59.7524 -53.0165 0.0000 0.0000 8.4733 -0.7734 1.1398 -0.0154 7.1250 -0.0000 -0.0000 19.7742 -28.5582 8.3802
0.00 0.00 0.00 186.2810 24.4814 -168.8730 0.0000 0.0000 0.0000 4.5860 -19.0931 -22.3116 0.0626 1.6145 4.4413 3.6382 36.8673 40.5495 0.4985 4.5267 12.5633 0.0000 0.0000 0.0000 -6.3313 3.3829 12.2195 -19.7002 -19.9978 89.1234 -0.0851 -7.2361 6.8379 -0.4014 4.0675 -11.2667 3.3279 10.4641 -6.1360 -0.6116 13.7411 0.4330 -0.9392 6.8965 4.7430 -0.4350 3.7325 -25.0946 2.8851 -4.4890 49.1891 -0.6591 -3.4851 30.1762 0.0000 0.0000 0.0000 -39.9480 51.0509 64.3769 80.4277 -59.6509 -51.7198 -0.0000 -0.0000 15.8062 8.4960 0.2177 0.0325 -7.1250 0.0000 -0.0000 -14.1627 30.0327 5.3197 0.0000 0.0000 0.0000 71.8838 -2.9080 41.0448 -78.2053 59.4678 -49.8037 0.0000 0.0000 10.1533 -1.1653 1.1621 -0.0236 7.1250 -0.0000 -0.0000 19.4804 -28.5471 8.2466
0.00 0.00 0.00 187.5120 23.7330 -168.9090 0.0000 0.0000 0.0000 0.3992 -15.7027 -24.4384 0.4957 4.5140 12.5274 6.1357 24.6677 46.3128 0.0114 -0.6900 -1.8961 0.0000 0.0000 0.0000 -9.0714 5.4051 11.0528 -23.2290 -19.7482 99.4793 0.1025 -6.3250 0.6807 -0.7056 5.3687 -14.9632 4.8463 9.1195 -6.5456 0.3785 11.8133 -0.0235 -0.9484 5.9682 4.4780 0.0540 4.4717 -24.8445 2.5258 -3.8059 49.5325 -0.8890 -3.3595 30.5446 0.0000 0.0000 0.0000 -44.6905 53.6854 60.8171 81.1134 -59.6995 -52.3117 -0.0000 -0.0000 16.4410 8.8071 0.3183 0.0493 -7.1250 0.0000 -0.0000 -13.9372 30.1378 5.1941 0.0000 0.0000 0.0000 73.9101 -9.8510 36.4727 -79.6966 59.5950 -51.0891 0.0000 0.0000 9.1481 -4.4883 0.3211 -0.0252 7.1250 -0.0000 -0.0000 17.1397 -29.4248 6.7863
0.00 0.00 0.00 187.8120 23.3093 -168.8600 0.0000 0.0000 0.0000 -1.1713 -13.2332 -26.2611 0.8087 5.7390 16.0290 6.7408 9.1539 48.1569 0.5853 -4.8985 -13.6192 0.0000 0.0000 0.0000 -9.7246 5.8858 10.5733 -24.1528 -19.5814 102.2239 0.1184 -6.2431 -0.8097 -0.7456 5.5155 -15.3850 5.2210 8.6918 -6.5545 0.6014 11.2200 -0.1306 -1.0060 5.6818 4.3593 0.1504 4.5775 -24.8782 2.4309 -3.6278 49.5032 -0.9245 -3.3056 30.4844 -0.0000 0.0000 0.0000 -46.1773 53.7777 59.7410 80.5013 -59.6563 -51.7834 -0.0000 -0.0000 16.3265 8.8880 0.6760 0.1057 -7.1250 0.0000 -0.0000 -13.9259 30.4908 5.0684 -0.0000 0.0000 0.0000 74.3229 -11.7908 35.0164 -80.7140 59.6716 -51.9669 0.0000 0.0000 9.2078 -5.2261 0.2423 -0.0222 7.1250 -0.0000 -0.0000 16.5936 -29.5171 6.5140
